<?xml-stylesheet type="text/css" href="svg-animation.css"?>

<svg width="64" height="62" viewBox="0 0 64 62" fill="none" xmlns="http://www.w3.org/2000/svg">
<g clip-path="url(#clip0)">
<path d="M49.36 56.6701H48.64C47.7234 56.7138 46.8266 56.3936 46.1449 55.7793C45.4632 55.165 45.0517 54.3063 45 53.3901V53.0701H47V53.3901C47.0594 53.772 47.2621 54.1169 47.5667 54.3546C47.8714 54.5924 48.2551 54.7052 48.64 54.6701H49.36C49.7449 54.7052 50.1286 54.5924 50.4333 54.3546C50.7379 54.1169 50.9406 53.772 51 53.3901C50.9638 53.0643 50.8152 52.7612 50.5798 52.5331C50.3444 52.305 50.0368 52.166 49.71 52.1401L48 51.8301C47.1986 51.7381 46.4563 51.3633 45.9064 50.7731C45.3566 50.1829 45.0352 49.416 45 48.6101C45.0517 47.6939 45.4632 46.8352 46.1449 46.2209C46.8266 45.6066 47.7234 45.2865 48.64 45.3301H49.36C50.2766 45.2865 51.1734 45.6066 51.8551 46.2209C52.5368 46.8352 52.9483 47.6939 53 48.6101V48.9301H51V48.6101C50.9406 48.2283 50.7379 47.8834 50.4333 47.6456C50.1286 47.4078 49.7449 47.295 49.36 47.3301H48.64C48.2551 47.295 47.8714 47.4078 47.5667 47.6456C47.2621 47.8834 47.0594 48.2283 47 48.6101C47.0362 48.9359 47.1848 49.239 47.4202 49.4671C47.6556 49.6952 47.9632 49.8342 48.29 49.8601L50.05 50.1701C50.8514 50.2621 51.5937 50.6369 52.1436 51.2271C52.6934 51.8173 53.0148 52.5842 53.05 53.3901C53.0245 53.8483 52.9087 54.2968 52.7091 54.7101C52.5096 55.1233 52.2303 55.4929 51.8874 55.7978C51.5444 56.1026 51.1445 56.3366 50.7108 56.4863C50.2771 56.6361 49.818 56.6985 49.36 56.6701V56.6701Z" fill="black" class="card--icon2-1"></path>
<path d="M50 44H48V46.33H50V44Z" fill="black" class="card--icon2-2"></path>
<path d="M50 55.6699H48V57.9999H50V55.6699Z" fill="black" class="card--icon2-3"></path>
<path d="M18 15H15.5C13.7761 15 12.1228 14.3152 10.9038 13.0962C9.68482 11.8772 9 10.2239 9 8.5C9 6.77609 9.68482 5.12279 10.9038 3.90381C12.1228 2.68482 13.7761 2 15.5 2H56V4H15.5C14.3065 4 13.1619 4.47411 12.318 5.31802C11.4741 6.16193 11 7.30653 11 8.5C11 9.69347 11.4741 10.8381 12.318 11.682C13.1619 12.5259 14.3065 13 15.5 13H18V15Z" fill="black" class="card--icon2-4"></path>
<path d="M56 62H10C9.73478 62 9.48043 61.8946 9.29289 61.7071C9.10536 61.5196 9 61.2652 9 61V8H11V60H55V15H26V13H56C56.2652 13 56.5196 13.1054 56.7071 13.2929C56.8946 13.4804 57 13.7348 57 14V61C57 61.2652 56.8946 61.5196 56.7071 61.7071C56.5196 61.8946 56.2652 62 56 62Z" fill="black" class="card--icon2-5"></path>
<path d="M54 4H52V14H54V4Z" fill="black" class="card--icon2-6"></path>
<path d="M26 24C25.8684 24.0008 25.7379 23.9755 25.6161 23.9258C25.4943 23.876 25.3834 23.8027 25.29 23.71L22 20.41L18.71 23.71C18.5694 23.8488 18.3908 23.9428 18.1968 23.9801C18.0028 24.0175 17.8021 23.9966 17.62 23.92C17.4374 23.845 17.2811 23.7176 17.1707 23.5539C17.0604 23.3901 17.001 23.1974 17 23V10C17 9.73478 17.1054 9.48043 17.2929 9.29289C17.4804 9.10536 17.7348 9 18 9H26C26.2652 9 26.5196 9.10536 26.7071 9.29289C26.8946 9.48043 27 9.73478 27 10V23C26.999 23.1974 26.9396 23.3901 26.8293 23.5539C26.7189 23.7176 26.5626 23.845 26.38 23.92C26.2613 23.976 26.1312 24.0034 26 24ZM22 18C22.1316 17.9992 22.2621 18.0245 22.3839 18.0742C22.5057 18.124 22.6166 18.1973 22.71 18.29L25 20.59V11H19V20.59L21.29 18.29C21.3834 18.1973 21.4943 18.124 21.6161 18.0742C21.7379 18.0245 21.8684 17.9992 22 18Z" fill="black" class="card--icon2-7"></path>
<path d="M23 13H21V15H23V13Z" fill="black" class="card--icon2-8"></path>
<path d="M44 6H32V8H44V6Z" fill="black" class="card--icon2-9"></path>
<path d="M50 9H46V11H50V9Z" fill="black" class="card--icon2-10"></path>
<path d="M19 27H17V53H19V27Z" fill="black" class="card--icon2-11"></path>
<path d="M19 55H17V58H19V55Z" fill="black" class="card--icon2-12"></path>
</g>
<defs>
<clipPath id="clip0">
<rect width="64" height="62" fill="white" class="card--icon2-13"></rect>
</clipPath>
</defs>
</svg>
