<?xml-stylesheet type="text/css" href="svg-animation.css"?>

<svg width="64" height="66" viewBox="0 0 64 66" fill="none" xmlns="http://www.w3.org/2000/svg">
<g clip-path="url(#clip0)">
<path d="M29 7H8C7.4 7 7 7.4 7 8V12C7 12.6 7.4 13 8 13H29C29.6 13 30 12.6 30 12V8C30 7.4 29.6 7 29 7ZM28 11H9V9H28V11Z" fill="black" class="card--icon-1"></path>
<path d="M14 18.2998H8C7.4 18.2998 7 18.6998 7 19.2998V25.2998C7 25.8998 7.4 26.2998 8 26.2998H14C14.6 26.2998 15 25.8998 15 25.2998V19.2998C15 18.6998 14.6 18.2998 14 18.2998ZM13 24.2998H9V20.2998H13V24.2998Z" fill="black" class="card--icon-2"></path>
<path d="M26 19.7998H17C16.4 19.7998 16 20.1998 16 20.7998C16 21.3998 16.4 21.7998 17 21.7998H26C26.6 21.7998 27 21.3998 27 20.7998C27 20.1998 26.6 19.7998 26 19.7998Z" fill="black" class="card--icon-3"></path>
<path d="M17 24.7998H21C21.6 24.7998 22 24.3998 22 23.7998C22 23.1998 21.6 22.7998 21 22.7998H17C16.4 22.7998 16 23.1998 16 23.7998C16 24.3998 16.4 24.7998 17 24.7998Z" fill="black" class="card--icon-4"></path>
<path d="M14 30H8C7.4 30 7 30.4 7 31V37C7 37.6 7.4 38 8 38H14C14.6 38 15 37.6 15 37V31C15 30.4 14.6 30 14 30ZM13 36H9V32H13V36Z" fill="black" class="card--icon-5"></path>
<path d="M26 31.5H17C16.4 31.5 16 31.9 16 32.5C16 33.1 16.4 33.5 17 33.5H26C26.6 33.5 27 33.1 27 32.5C27 31.9 26.6 31.5 26 31.5Z" fill="black" class="card--icon-6"></path>
<path d="M17 36.5H21C21.6 36.5 22 36.1 22 35.5C22 34.9 21.6 34.5 21 34.5H17C16.4 34.5 16 34.9 16 35.5C16 36.1 16.4 36.5 17 36.5Z" fill="black" class="card--icon-7"></path>
<path d="M14 41.7998H8C7.4 41.7998 7 42.1998 7 42.7998V48.7998C7 49.3998 7.4 49.7998 8 49.7998H14C14.6 49.7998 15 49.3998 15 48.7998V42.7998C15 42.1998 14.6 41.7998 14 41.7998ZM13 47.7998H9V43.7998H13V47.7998Z" fill="black" class="card--icon-8"></path>
<path d="M26 43.2998H17C16.4 43.2998 16 43.6998 16 44.2998C16 44.8998 16.4 45.2998 17 45.2998H26C26.6 45.2998 27 44.8998 27 44.2998C27 43.6998 26.6 43.2998 26 43.2998Z" fill="black" class="card--icon-9"></path>
<path d="M21 46.2998H17C16.4 46.2998 16 46.6998 16 47.2998C16 47.8998 16.4 48.2998 17 48.2998H21C21.6 48.2998 22 47.8998 22 47.2998C22 46.6998 21.6 46.2998 21 46.2998Z" fill="black" class="card--icon-10"></path>
<path d="M60 23.9999H42V11.9999C42 11.9999 42 11.9999 42 11.8999C42 11.7999 42 11.6999 41.9 11.5999V11.4999C41.9 11.3999 41.8 11.2999 41.7 11.1999L33.7 3.1999C33.6 3.0999 33.5 3.0999 33.4 2.9999H33.3C33.2 2.9999 33.1 2.9999 33 2.8999C33 2.8999 33 2.8999 32.9 2.8999H4C3.4 2.9999 3 3.3999 3 3.9999V52.9999C3 53.5999 3.4 53.9999 4 53.9999H33V59.9999C33 60.5999 33.4 60.9999 34 60.9999H60C60.6 60.9999 61 60.5999 61 59.9999V24.9999C61 24.3999 60.6 23.9999 60 23.9999ZM34 6.3999L38.6 10.9999H34V6.3999ZM5 51.9999V4.9999H32V11.9999C32 12.5999 32.4 12.9999 33 12.9999H40V23.9999H34C33.4 23.9999 33 24.3999 33 24.9999V51.9999H5ZM59 58.9999H35V25.9999H59V58.9999Z" fill="black" class="card--icon-11"></path>
<path d="M36 28V34C36 34.6 36.4 35 37 35H57C57.6 35 58 34.6 58 34V28C58 27.4 57.6 27 57 27H37C36.4 27 36 27.4 36 28ZM38 29H56V33H38V29Z" fill="black" class="card--icon-12"></path>
<path d="M42 37H37.5C36.9 37 36.5 37.4 36.5 38V42.5C36.5 43.1 36.9 43.5 37.5 43.5H42C42.6 43.5 43 43.1 43 42.5V38C43 37.4 42.6 37 42 37ZM41 41.5H38.5V39H41V41.5Z" fill="black" class="card--icon-13"></path>
<path d="M49.2 37H44.7C44.1 37 43.7 37.4 43.7 38V42.5C43.7 43.1 44.1 43.5 44.7 43.5H49.2C49.8 43.5 50.2 43.1 50.2 42.5V38C50.2 37.4 49.8 37 49.2 37ZM48.2 41.5H45.7V39H48.2V41.5Z" fill="black" class="card--icon-14"></path>
<path d="M56.5 37H52C51.4 37 51 37.4 51 38V42.5C51 43.1 51.4 43.5 52 43.5H56.5C57.1 43.5 57.5 43.1 57.5 42.5V38C57.5 37.4 57.1 37 56.5 37ZM55.5 41.5H53V39H55.5V41.5Z" fill="black" class="card--icon-15"></path>
<path d="M42 44.2H37.5C36.9 44.2 36.5 44.6 36.5 45.2V49.7C36.5 50.3 36.9 50.7 37.5 50.7H42C42.6 50.7 43 50.3 43 49.7V45.2C43 44.6 42.6 44.2 42 44.2ZM41 48.7H38.5V46.2H41V48.7Z" fill="black" class="card--icon-16"></path>
<path d="M49.2 44.2H44.7C44.1 44.2 43.7 44.6 43.7 45.2V49.7C43.7 50.3 44.1 50.7 44.7 50.7H49.2C49.8 50.7 50.2 50.3 50.2 49.7V45.2C50.2 44.6 49.8 44.2 49.2 44.2ZM48.2 48.7H45.7V46.2H48.2V48.7Z" fill="black" class="card--icon-17"></path>
<path d="M56.5 44.2H52C51.4 44.2 51 44.6 51 45.2V49.7C51 50.3 51.4 50.7 52 50.7H56.5C57.1 50.7 57.5 50.3 57.5 49.7V45.2C57.5 44.6 57.1 44.2 56.5 44.2ZM55.5 48.7H53V46.2H55.5V48.7Z" fill="black" class="card--icon-18"></path>
<path d="M42 51.5H37.5C36.9 51.5 36.5 51.9 36.5 52.5V57C36.5 57.6 36.9 58 37.5 58H42C42.6 58 43 57.6 43 57V52.5C43 51.9 42.6 51.5 42 51.5ZM41 56H38.5V53.5H41V56Z" fill="black" class="card--icon-19"></path>
<path d="M49.2 51.5H44.7C44.1 51.5 43.7 51.9 43.7 52.5V57C43.7 57.6 44.1 58 44.7 58H49.2C49.8 58 50.2 57.6 50.2 57V52.5C50.2 51.9 49.8 51.5 49.2 51.5ZM48.2 56H45.7V53.5H48.2V56Z" fill="black" class="card--icon-20"></path>
<path d="M56.5 51.5H52C51.4 51.5 51 51.9 51 52.5V57C51 57.6 51.4 58 52 58H56.5C57.1 58 57.5 57.6 57.5 57V52.5C57.5 51.9 57.1 51.5 56.5 51.5ZM55.5 56H53V53.5H55.5V56Z" fill="black" class="card--icon-21"></path>
</g>
<defs>
<clipPath id="clip0">
<rect width="64" height="66" fill="white" class="card--icon-22"></rect>
</clipPath>
</defs>
</svg>
