<?xml-stylesheet type="text/css" href="svg-animation.css"?>

<svg width="64" height="63" viewBox="0 0 64 63" fill="none" xmlns="http://www.w3.org/2000/svg">
<path d="M63 1H11V13H6C3.243 13 1 15.243 1 18V58C1 60.757 3.243 63 6 63H32C34.757 63 37 60.757 37 58V34.5L33 31.5V27H43.695C40.861 28.992 39 32.28 39 36C39 38.573 39.894 40.936 41.38 42.812C39.842 43.677 39 44.779 39 46V58C39 61.248 44.667 63 50 63C55.333 63 61 61.248 61 58V46C61 44.779 60.158 43.677 58.62 42.812C60.106 40.936 61 38.573 61 36C61 32.28 59.139 28.992 56.305 27H63V1ZM30.104 3C26.444 5.303 24 9.367 24 14C24 16.5 24.726 18.921 26.057 21H13V3H30.104ZM6 15H11V21H6C4.346 21 3 19.654 3 18C3 16.346 4.346 15 6 15ZM3 58V21.998C3.836 22.627 4.875 23 6 23H7V61H6C4.346 61 3 59.654 3 58ZM35 35.5V58C35 59.654 33.654 61 32 61H9V23H28C29.654 23 31 24.346 31 26V32.5L35 35.5ZM32.899 25C32.472 22.907 30.726 21.309 28.575 21.058C26.918 19.08 26 16.59 26 14C26 7.935 30.935 3 37 3C43.065 3 48 7.935 48 14C48 20.065 43.065 25 37 25H32.899ZM41 48.958C41.574 49.32 42.253 49.633 43 49.901V51.776C41.716 51.213 41 50.551 41 50V48.958ZM49 56.98C47.476 56.918 46.135 56.717 45 56.436V54.474C46.264 54.753 47.63 54.924 49 54.98V56.98ZM49 58.98V60.98C47.476 60.918 46.135 60.717 45 60.436V58.474C46.264 58.753 47.63 58.924 49 58.98ZM51 58.98C52.37 58.924 53.736 58.753 55 58.474V60.436C53.865 60.716 52.524 60.918 51 60.98V58.98ZM51 56.98V54.98C52.37 54.924 53.736 54.753 55 54.474V56.436C53.865 56.716 52.524 56.918 51 56.98ZM51 52.98V50.98C52.37 50.924 53.736 50.753 55 50.474V52.436C53.865 52.716 52.524 52.918 51 52.98ZM49 52.98C47.476 52.918 46.135 52.717 45 52.436V50.474C46.264 50.753 47.63 50.924 49 50.98V52.98ZM41 52.958C41.574 53.32 42.253 53.633 43 53.901V55.776C41.716 55.213 41 54.551 41 54V52.958ZM41 58V56.958C41.574 57.32 42.253 57.633 43 57.901V59.776C41.716 59.213 41 58.551 41 58ZM57 59.776V57.901C57.747 57.633 58.426 57.32 59 56.958V58C59 58.551 58.284 59.213 57 59.776ZM57 55.776V53.901C57.747 53.633 58.426 53.32 59 52.958V54C59 54.551 58.284 55.213 57 55.776ZM57 51.776V49.901C57.747 49.633 58.426 49.32 59 48.958V50C59 50.551 58.284 51.213 57 51.776ZM59 46C59 47.224 55.494 49 50 49C44.506 49 41 47.224 41 46C41 45.475 41.698 44.839 42.816 44.312C44.746 45.982 47.254 47 50 47C52.746 47 55.254 45.982 57.184 44.312C58.302 44.839 59 45.475 59 46ZM59 36C59 40.963 54.962 45 50 45C45.038 45 41 40.963 41 36C41 31.037 45.038 27 50 27C54.962 27 59 31.037 59 36ZM61 25H43.896C47.556 22.697 50 18.633 50 14C50 9.367 47.556 5.303 43.896 3H61V25Z" fill="black" class="card--icon3-1"></path>
<path d="M37 9C38.103 9 39 9.897 39 11H41C41 9.141 39.72 7.589 38 7.142V5H36V7H33V11C33 13.206 34.794 15 37 15C38.103 15 39 15.897 39 17V19H37C35.897 19 35 18.103 35 17H33C33 18.859 34.28 20.411 36 20.858V23H38V21H41V17C41 14.794 39.206 13 37 13C35.897 13 35 12.103 35 11V9H37Z" fill="black" class="card--icon3-2"></path>
<path d="M46 13H44V15H46V13Z" fill="black" class="card--icon3-3"></path>
<path d="M30 13H28V15H30V13Z" fill="black" class="card--icon3-4"></path>
<path d="M27 48V46C27 43.586 25.279 41.566 23 41.101V33.184C24.161 33.598 25 34.698 25 36V37H27V36C27 33.586 25.279 31.566 23 31.101V27H21V31H19V27H17V31.101C14.721 31.566 13 33.585 13 36V38C13 40.414 14.721 42.434 17 42.899V50.816C15.839 50.402 15 49.302 15 48V47H13V48C13 50.414 14.721 52.434 17 52.899V57H19V53H21V57H23V52.899C25.279 52.434 27 50.414 27 48ZM21 33V41H19V33H21ZM15 38V36C15 34.698 15.839 33.598 17 33.184V40.815C15.839 40.402 15 39.302 15 38ZM19 51V43H21V51H19ZM25 48C25 49.302 24.161 50.402 23 50.816V43.185C24.161 43.599 25 44.699 25 46.001V48Z" fill="black" class="card--icon3-5"></path>
<path d="M31 57H27V59H31C32.103 59 33 58.103 33 57V45H31V57Z" fill="black" class="card--icon3-6"></path>
<path d="M33 41H31V43H33V41Z" fill="black" class="card--icon3-7"></path>
<path d="M57 11H59V5H53V7H57V11Z" fill="black" class="card--icon3-8"></path>
<path d="M17 7H21V5H15V11H17V7Z" fill="black" class="card--icon3-9"></path>
<path d="M59 17H57V21H53V23H59V17Z" fill="black" class="card--icon3-10"></path>
<path d="M50 39C49.449 39 49 38.552 49 38H47C47 39.302 47.839 40.402 49 40.816V43H51V41H53V38C53 36.346 51.654 35 50 35C49.449 35 49 34.552 49 34V33H50C50.551 33 51 33.448 51 34H53C53 32.698 52.161 31.598 51 31.184V29H49V31H47V34C47 35.654 48.346 37 50 37C50.551 37 51 37.448 51 38V39H50Z" fill="black" class="card--icon3-11"></path>
<path d="M44 37C44.5523 37 45 36.5523 45 36C45 35.4477 44.5523 35 44 35C43.4477 35 43 35.4477 43 36C43 36.5523 43.4477 37 44 37Z" fill="black" class="card--icon3-12"></path>
<path d="M56 37C56.5523 37 57 36.5523 57 36C57 35.4477 56.5523 35 56 35C55.4477 35 55 35.4477 55 36C55 36.5523 55.4477 37 56 37Z" fill="black" class="card--icon3-13"></path>
</svg>
